:SAMPLES-PER-SECOND 30
:FULLY-SPECIFIED
:DEGREES
365
root  -33.7468 39.5988 8.16476 176.322 -29.1131 179.113
RightUpLeg  -9.35465 4.68054 1.99101
RightLeg  24.6404 2.80262 1.10736
RightFoot  -5.31532 -0.270077 4.40871
RightToes  -5.8209e-011 0 -3.6325e-017
Spine  4.68059 -0.298322 -0.759098
Spine1  15.2835 -4.46438 14.1929
HEad  -43.0494 -48.0437 31.0719
LeftShoulder1  1.75299 -3.39716 -18.8675
LeftArm  31.7463 59.6004 -71.1596
LeftForeArm  29.4806 -56.0529 -14.1618
LeftHand  0.0893396 -3.09556 -0.821543
RightShoulder  0.429457 -1.84668 19.8204
RightArm  -36.1156 -41.1922 36.3769
RightForeArm  58.2918 -4.27677 1.99315
RightHand  0.317753 -0.648876 7.98135
LeftUpLeg  -13.846 -0.989156 4.69182
LeftLeg  44.1306 0.603409 1.1232
LeftFoot  0.692325 1.40032 -13.2719
LeftToes  6.82088e-011 -2.45093e-011 5.71991e-013
366
root  -34.3102 40.0579 8.26909 177.732 -21.4791 178.508
RightUpLeg  -9.65073 4.54217 0.376669
RightLeg  21.6164 9.84187 3.64157
RightFoot  -1.41742 -0.5582 6.27905
RightToes  -5.8209e-011 0 -3.6325e-017
Spine  4.19931 0.0719051 -1.81459
Spine1  15.6669 -4.14157 13.6044
HEad  -40.947 -46.3577 28.8009
LeftShoulder1  1.71033 -3.9221 -16.3066
LeftArm  34.9894 61.2421 -66.1804
LeftForeArm  34.4516 -61.8786 -17.8211
LeftHand  0.203036 -3.19256 -2.53576
RightShoulder  0.478756 -1.54029 18.0777
RightArm  -35.196 -41.8642 32.915
RightForeArm  55.2456 -3.30377 2.24612
RightHand  0.218874 -0.552275 5.35149
LeftUpLeg  -11.5409 -9.03705 4.74136
LeftLeg  33.1475 -3.39379 -2.07251
LeftFoot  -0.64519 1.1895 -12.6367
LeftToes  6.82088e-011 -2.45093e-011 5.71991e-013
367
root  -34.8371 40.2277 8.42065 178.585 -13.1747 178.747
RightUpLeg  -10.7752 4.56706 -0.276138
RightLeg  20.4426 17.5139 6.14724
RightFoot  0.807352 -1.07522 10.1379
RightToes  -5.8209e-011 0 -3.6325e-017
Spine  4.20783 0.36452 -2.28793
Spine1  15.501 -3.65934 12.7978
HEad  -38.0435 -43.5509 26.0043
LeftShoulder1  1.70893 -4.65893 -14.0175
LeftArm  41.4487 60.9314 -58.1663
LeftForeArm  39.3634 -63.9906 -19.2612
LeftHand  0.4135 -3.48618 -5.15892
RightShoulder  0.526432 -1.15779 15.8683
RightArm  -33.7918 -40.6202 30.2092
RightForeArm  52.319 -2.13149 3.03293
RightHand  0.216278 -0.380607 5.10004
LeftUpLeg  -9.19211 -19.0349 5.45093
LeftLeg  26.2091 -6.05992 -2.94577
LeftFoot  -2.86607 0.916571 -12.0743
LeftToes  6.82088e-011 -2.45093e-011 5.71991e-013
368
root  -35.3598 40.1297 8.65119 178.83 -4.34874 179.291
RightUpLeg  -12.2201 5.23277 -0.749464
RightLeg  20.7491 25.4196 9.35332
RightFoot  1.0433 -1.82863 16.8257
RightToes  -5.8209e-011 0 -3.6325e-017
Spine  5.02637 0.584287 -2.71599
Spine1  15.3282 -3.18237 11.8355
HEad  -35.3915 -39.4181 23.4241
LeftShoulder1  1.90105 -5.76985 -13.511
LeftArm  50.9442 59.2167 -46.9369
LeftForeArm  38.5456 -63.3591 -18.7694
LeftHand  0.309896 -3.65246 -3.72248
RightShoulder  0.506473 -1.01309 13.4843
RightArm  -32.734 -37.2426 28.9157
RightForeArm  47.6763 -0.321066 4.19455
RightHand  0.232277 -0.722282 5.92364
LeftUpLeg  -6.93542 -23.9747 5.49786
LeftLeg  24.2238 -6.4809 -2.85341
LeftFoot  -6.83536 0.475712 -11.0237
LeftToes  6.82088e-011 -2.45093e-011 5.71991e-013
369
root  -35.8465 39.9216 8.93658 178.525 4.52173 179.15
RightUpLeg  -13.2103 5.5673 -1.94071
RightLeg  21.0238 32.502 12.369
RightFoot  -0.365051 -2.5513 26.2711
RightToes  -5.8209e-011 0 -3.6325e-017
Spine  6.12933 0.761017 -4.47823
Spine1  15.9545 -2.90559 10.6301
HEad  -34.1653 -34.1833 22.2675
LeftShoulder1  2.23416 -6.66643 -15.1481
LeftArm  61.9025 55.1037 -34.7348
LeftForeArm  33.6044 -60.6657 -16.9942
LeftHand  0.0731884 -3.57748 -0.715861
RightShoulder  0.414981 -1.30145 11.848
RightArm  -31.8739 -31.421 28.5172
RightForeArm  41.3191 2.14852 5.75797
RightHand  0.250699 -0.907172 6.67488
LeftUpLeg  -4.30072 -19.9221 4.12489
LeftLeg  23.6075 -5.16039 -2.13725
LeftFoot  -10.2951 0.150207 -9.67758
LeftToes  6.82088e-011 -2.45093e-011 5.71991e-013
370
root  -36.2891 39.6978 9.23478 178.069 12.2169 178.211
RightUpLeg  -13.9467 4.76712 -3.50049
RightLeg  21.0875 37.9072 14.3333
RightFoot  -3.58467 -2.51909 35.7712
RightToes  -5.8209e-011 0 -3.6325e-017
Spine  6.38647 0.714624 -7.65102
Spine1  17.3639 -3.23904 10.0414
HEad  -33.85 -29.2983 21.7818
LeftShoulder1  2.51722 -6.91151 -17.5512
LeftArm  72.4249 47.4985 -26.5267
LeftForeArm  27.5091 -55.3527 -14.0285
LeftHand  -0.0734043 -4.61706 1.14532
RightShoulder  0.284094 -1.96581 11.5772
RightArm  -30.9235 -24.1112 28.5335
RightForeArm  34.3315 6.05426 7.37886
RightHand  0.302072 -0.753104 7.71276
LeftUpLeg  -1.98956 -12.4692 2.1913
LeftLeg  21.9901 -2.21091 -0.658804
LeftFoot  -12.8681 -0.0210292 -7.51412
LeftToes  6.82088e-011 -2.45093e-011 5.71991e-013
371
root  -36.7316 39.5835 9.56527 178.12 17.6725 177.587
RightUpLeg  -14.6054 3.71138 -4.02099
RightLeg  20.2996 41.1786 14.5015
RightFoot  -6.85484 -1.68746 39.6833
RightToes  -5.8209e-011 0 -3.6325e-017
Spine  5.70275 0.118425 -10.4147
Spine1  18.8563 -4.46743 10.8197
HEad  -33.2296 -26.257 20.1821
LeftShoulder1  2.73478 -7.18354 -19.0772
LeftArm  83.9993 37.3659 -25.1246
LeftForeArm  18.1716 -46.798 -10.66
LeftHand  -0.170942 -5.47781 2.15154
RightShoulder  0.168595 -2.62414 12.5619
RightArm  -26.4834 -17.5405 29.4598
RightForeArm  23.4456 13.2279 7.40224
RightHand  0.314384 -0.584924 7.68927
LeftUpLeg  -0.816076 -7.96055 0.740282
LeftLeg  19.6959 1.02242 0.838385
LeftFoot  -14.6029 -0.0470269 -4.63867
LeftToes  6.82088e-011 -2.45093e-011 5.71991e-013
372
root  -37.1806 39.6331 9.95158 178.627 21.564 177.902
RightUpLeg  -15.2327 4.27126 -3.04515
RightLeg  18.1158 40.1179 11.977
RightFoot  -7.38881 -1.25144 34.2879
RightToes  -5.8209e-011 0 -3.6325e-017
Spine  5.28608 -0.81333 -11.8401
Spine1  19.7914 -6.10387 12.0731
HEad  -31.8524 -24.6712 16.9906
LeftShoulder1  3.01251 -8.14486 -19.379
LeftArm  99.1508 26.779 -28.3628
LeftForeArm  5.15357 -37.1202 -7.77052
LeftHand  -0.230366 -4.99603 2.88967
RightShoulder  0.146142 -2.78738 13.971
RightArm  -18.328 -13.1959 32.0025
RightForeArm  9.42805 23.1948 4.91052
RightHand  0.202737 0.303365 4.31453
LeftUpLeg  -0.415661 -6.47427 0.186574
LeftLeg  17.6481 3.4443 2.05328
LeftFoot  -15.1665 -0.0130852 -3.07823
LeftToes  6.82088e-011 -2.45093e-011 5.71991e-013
373
root  -37.619 39.7358 10.3543 178.92 25.5425 178.685
RightUpLeg  -16.0102 6.58984 -1.69755
RightLeg  15.4969 31.8935 7.4772
RightFoot  -5.48714 -1.22292 23.0677
RightToes  -5.8209e-011 0 -3.6325e-017
Spine  5.8082 -1.57007 -12.2003
Spine1  20.201 -7.28068 12.5536
HEad  -30.0831 -22.8719 13.4699
LeftShoulder1  3.23138 -9.16283 -18.9962
LeftArm  97.1029 16.223 -31.1479
LeftForeArm  7.64865 -26.8059 -8.14159
LeftHand  -0.40243 -4.2635 5.1064
RightShoulder  0.258124 -2.2942 14.8536
RightArm  -19.9212 -10.9549 35.6455
RightForeArm  9.16343 31.6474 6.36839
RightHand  -0.0892282 2.4059 -1.45716
LeftUpLeg  -0.200306 -5.00638 0.380243
LeftLeg  16.6164 5.60968 2.89873
LeftFoot  -14.9169 -0.0135143 -3.31263
LeftToes  6.82088e-011 -2.45093e-011 5.71991e-013
374
root  -38.0106 39.8389 10.6963 178.815 30.0273 178.896
RightUpLeg  -16.8151 7.02756 -1.3305
RightLeg  13.3771 17.7459 2.8217
RightFoot  -3.995 -0.95982 14.2744
RightToes  -5.8209e-011 0 -3.6325e-017
Spine  6.22187 -2.09345 -12.3734
Spine1  20.6721 -7.72208 11.8674
HEad  -28.3306 -20.3837 11.036
LeftShoulder1  3.12428 -9.03136 -18.3507
LeftArm  33.8548 5.12444 -29.9334
LeftForeArm  56.3908 -7.70293 -14.2285
LeftHand  -0.709208 -3.96827 9.03716
RightShoulder  0.429096 -1.51429 14.9504
RightArm  -18.4911 -10.0117 40.3853
RightForeArm  10.6867 38.4626 8.24124
RightHand  -0.525102 4.49649 -6.50369
LeftUpLeg  0.198372 -2.19071 0.362278
LeftLeg  15.6319 7.55326 3.33296
LeftFoot  -14.0437 -0.00426118 -3.73156
LeftToes  6.82088e-011 -2.45093e-011 5.71991e-013
375
root  -38.3338 39.9476 10.9433 178.645 34.1319 178.296
RightUpLeg  -17.4455 2.58798 -1.80743
RightLeg  12.1155 2.91293 -0.544477
RightFoot  -4.16087 -0.823218 12.6432
RightToes  -5.8209e-011 0 -3.6325e-017
Spine  5.45859 -2.56046 -12.3302
Spine1  21.5174 -7.62303 10.2613
HEad  -26.5022 -18.3926 9.91933
LeftShoulder1  2.66932 -7.35054 -18.0095
LeftArm  -26.687 -3.30617 -25.1496
LeftForeArm  80.0835 7.7703 -11.7733
LeftHand  -0.943659 -3.96805 11.9705
RightShoulder  0.529069 -1.03805 14.7579
RightArm  -15.6182 -10.6374 45.162
RightForeArm  14.3075 43.6381 9.70917
RightHand  -0.846177 5.67923 -9.20215
LeftUpLeg  0.689613 0.116232 -0.237751
LeftLeg  13.8516 9.5267 3.2165
LeftFoot  -12.8753 0.0302844 -3.47591
LeftToes  6.82088e-011 -2.45093e-011 5.71991e-013
376
root  -38.5904 40.043 11.1252 178.355 37.5647 177.291
RightUpLeg  -17.6924 -3.71534 -2.81347
RightLeg  11.8348 -7.69254 -2.03749
RightFoot  -4.14123 -0.958139 14.6363
RightToes  -5.8209e-011 0 -3.6325e-017
Spine  3.9936 -2.81993 -11.8005
Spine1  22.2889 -6.9452 8.06342
HEad  -24.4557 -17.9285 9.72875
LeftShoulder1  2.08114 -4.70569 -18.8656
LeftArm  -32.9373 -11.795 -24.1232
LeftForeArm  43.6526 5.29748 -9.14342
LeftHand  -0.930715 -3.76957 12.0292
RightShoulder  0.52633 -1.05977 14.8568
RightArm  -13.5816 -12.7645 49.186
RightForeArm  19.0532 46.8131 10.5606
RightHand  -0.956637 6.30795 -9.80142
LeftUpLeg  1.41705 0.956159 -1.05892
LeftLeg  11.4331 11.9534 2.525
LeftFoot  -11.7813 0.0587085 -3.17992
LeftToes  6.82088e-011 -2.45093e-011 5.71991e-013
377
root  -38.7919 40.0848 11.2561 177.665 41.2093 176.327
RightUpLeg  -17.7565 -7.6964 -3.87516
RightLeg  12.8987 -12.4304 -2.94811
RightFoot  -1.95641 -1.13467 13.7657
RightToes  -5.8209e-011 0 -3.6325e-017
Spine  3.01063 -2.58824 -11.064
Spine1  22.3697 -5.70977 5.82915
HEad  -22.3989 -18.772 10.1936
LeftShoulder1  1.57151 -2.30544 -20.6094
LeftArm  -40.6629 -21.292 -26.2603
LeftForeArm  10.5658 -5.9521 -8.03968
LeftHand  -0.7882 -3.32612 10.7262
RightShoulder  0.515655 -1.15885 15.3588
RightArm  -12.6401 -15.0859 52.0448
RightForeArm  21.4178 46.772 10.385
RightHand  -0.951261 6.65216 -9.48244
LeftUpLeg  2.65515 1.34717 -1.67455
LeftLeg  9.01252 15.1619 1.55609
LeftFoot  -11.0011 0.0757473 -3.26766
LeftToes  6.82088e-011 -2.45093e-011 5.71991e-013
378
root  -38.9306 40.0453 11.3259 176.694 45.3751 175.45
RightUpLeg  -18.2975 -7.81242 -5.05715
RightLeg  15.2976 -13.1205 -4.1256
RightFoot  1.00613 -1.00777 9.33445
RightToes  -5.8209e-011 0 -3.6325e-017
Spine  2.69936 -2.16064 -10.9351
Spine1  21.8864 -4.70126 4.51686
HEad  -20.8272 -19.9538 10.7192
LeftShoulder1  1.29064 -1.1402 -21.3653
LeftArm  -44.4195 -29.5122 -31.6554
LeftForeArm  -15.8769 -18.6626 -6.12264
LeftHand  -0.639506 -2.59875 9.51275
RightShoulder  0.598388 -0.845123 15.9045
RightArm  -11.77 -16.122 53.635
RightForeArm  20.0443 43.2029 9.18028
RightHand  -0.84935 6.44856 -8.63479
LeftUpLeg  3.86052 2.03478 -2.1837
LeftLeg  7.53953 18.7038 0.919718
LeftFoot  -10.79 0.0814064 -3.49541
LeftToes  6.82088e-011 -2.45093e-011 5.71991e-013
379
root  -38.9945 39.9483 11.3479 175.889 48.9972 174.581
RightUpLeg  -19.093 -6.17212 -6.85463
RightLeg  17.7907 -12.7031 -4.72319
RightFoot  2.04667 -0.747203 6.44839
RightToes  -5.8209e-011 0 -3.6325e-017
Spine  2.47632 -2.19172 -12.0192
Spine1  21.4746 -4.98353 5.07086
HEad  -20.2604 -20.3801 10.1991
LeftShoulder1  1.30761 -1.40104 -20.2408
LeftArm  -49.0161 -35.2006 -36.5743
LeftForeArm  -22.6009 -26.6823 -6.63575
LeftHand  -0.567972 -1.82496 9.33322
RightShoulder  0.751573 -0.188169 16.0582
RightArm  -10.6049 -15.6338 54.3741
RightForeArm  17.7001 37.5103 7.52651
RightHand  -0.638253 5.73977 -6.95339
LeftUpLeg  4.10388 2.3083 -2.78991
LeftLeg  7.79653 21.8926 1.06564
LeftFoot  -11.2563 0.0701246 -3.82705
LeftToes  6.82088e-011 -2.45093e-011 5.71991e-013
